<svg xmlns="http://www.w3.org/2000/svg" viewBox="0 0 105.48 105.77"><defs><style>.cls-1{fill:#fff;}</style></defs><g id="Layer_2" data-name="Layer 2"><g id="Layer_1-2" data-name="Layer 1"><path class="cls-1" d="M0,55.84,8.48,44.4,3.4,44.05a8.77,8.77,0,0,1-1-.06c-.78-.17-1.53-.6-1.36-1.44a2.37,2.37,0,0,1,1.32-1.3,5.12,5.12,0,0,1,1.89-.13h98.05a8.77,8.77,0,0,1,.89,0c1.08.14,1.71.83,1.6,1.74a1.53,1.53,0,0,1-2,1.32c-3.45-.76-5.69.83-7.63,3.47Q81.6,66.1,67.91,84.42a6.58,6.58,0,0,0-1.47,4.36c.08,2.09,0,4.18,0,6.27l.39.13,1.3-1.68,34-45.54a14.24,14.24,0,0,1,1.47-1.64c.75-.72,1.39-.62,1.84.36v1.48c-.41.61-.8,1.24-1.24,1.83Q87.16,72.88,70.08,95.77c-1.64,2.21-3.89,4.12-3.78,7.3,0,.39-.89,1-1.45,1.16-.83.16-1.15-.6-1.25-1.33a14.89,14.89,0,0,1-.05-1.77q0-23.53,0-47.09c0-2.8,0-5.61,0-8.41,0-1.17-.51-1.61-1.61-1.57-.92,0-1.86,0-2.78.12a1.3,1.3,0,0,0-.86.74,5.74,5.74,0,0,0-.07,1.61q0,23.55,0,47.09c0,3.2-.05,6.4.09,9.59a2.51,2.51,0,0,1-1,2.56h-.89c-.37-.65-1-1.29-1.07-2-.11-3.43-.06-6.87-.06-10.3q0-23.1,0-46.21c0-3.72.4-2.87-3.18-3.24-1.55-.15-1.9.29-1.9,1.87q0,28.49,0,57a4.12,4.12,0,0,1-.91,2.85h-.89a4.3,4.3,0,0,1-1.17-3.35q0-27.7,0-55.39c0-.49,0-1,0-1.48-.06-1.25-.39-1.51-1.67-1.42a11.71,11.71,0,0,1-2,0c-.91-.11-1.31.22-1.31,1.1,0,.5,0,1,0,1.48V101.1a4.59,4.59,0,0,1-.1,1.75,7.74,7.74,0,0,1-1.3,1.6c-.5-.5-1-1-1.5-1.5a1.35,1.35,0,0,1-.12-.72c-.07-1.52-.14-3-.17-4.57,0-1,0-2,0-3l-.4-.11-4.29,5.74c-.7,1-2.29,1.57-2.75,1-.68-.88-.25-1.75.35-2.54,1.91-2.56,3.8-5.15,5.73-7.7a6.82,6.82,0,0,0,1.56-4.35c0-1.72-.13-3.44-.21-5.16a13.35,13.35,0,0,0-.18-1.34c-.48.58-.81.93-1.09,1.31L26.89,96c-1,1.33-2.06,1.81-2.78,1.24s-.53-1.63.41-2.89C28.37,89.21,32.17,84,36.1,78.88c1.77-2.31,3.4-4.59,3.07-7.7,0-.28.1-.59.08-.88-.07-1.36-.18-2.73-.27-4.1l-.38,0c-.33.41-.67.82-1,1.25L21.53,89c-.74,1-1.46,2-2.23,2.94a1.25,1.25,0,0,1-1.92.32,1.39,1.39,0,0,1-.38-2,9.91,9.91,0,0,1,.59-.85c2.77-3.71,5.52-7.43,8.29-11.13C29.74,73.12,33.64,68,37.45,62.78A11.13,11.13,0,0,0,39,59.36a10.88,10.88,0,0,0,.25-3.08c0-1.53-.14-3.05-.23-4.89-.55.69-.89,1.1-1.21,1.53Q26.19,68.49,14.56,84a5.93,5.93,0,0,1-1.38,1.52,1.89,1.89,0,0,1-1.59.19c-.32-.15-.51-1-.42-1.43A4.33,4.33,0,0,1,12,82.65Q24.12,66.42,36.22,50.21c.85-1.15,1.74-2.27,2.53-3.46.94-1.41.55-2.31-1.13-2.62A5.36,5.36,0,0,0,32.7,45.5a17.69,17.69,0,0,0-1.89,2.26Q20,62.27,9.18,76.77A4.58,4.58,0,0,1,8,78c-.4.24-1.17.44-1.41.23A1.92,1.92,0,0,1,6,76.74a4.43,4.43,0,0,1,.91-1.65Q17.8,60.47,28.71,45.85c.32-.42.6-.87,1-1.5a14.91,14.91,0,0,0-1.93-.29c-1,0-2.06.25-3.08.17a3.23,3.23,0,0,0-3,1.63q-8,10.72-16,21.39A8.19,8.19,0,0,1,4.07,69a1.6,1.6,0,0,1-1.42.23,1.59,1.59,0,0,1-.48-1.4,6.38,6.38,0,0,1,1.07-2.07Q10.59,55.83,18,46c.34-.45.64-.93,1.09-1.58-2.13-.1-4-.25-5.83-.26a2.8,2.8,0,0,0-1.4.71,4.48,4.48,0,0,0-.73.92c-2.86,3.82-5.71,7.66-8.6,11.46C1.33,58.77.86,58.76,0,57.32Zm66.55,25,.33.1,27.4-36.69a20.83,20.83,0,0,1-3.83,0c-2.22-.46-3.59.41-4.87,2.15-5.54,7.53-11.2,15-16.79,22.48-1.24,1.66-2.45,3.43-2.53,5.57S66.44,78.68,66.55,80.83Zm0-14.22.3.11L83.5,44.46l-.25-.53c-2.22.15-4.44.28-6.66.48a1.69,1.69,0,0,0-.93.68c-2.68,3.51-5.37,7-8,10.59a7.48,7.48,0,0,0-1.47,5.14c.11,1.46.16,2.93.24,4.4C66.48,65.68,66.5,66.15,66.53,66.61Zm-.07-14.84.37.18,5.85-7.83c-1.92,0-3.44.05-5,0-.9,0-1.27.33-1.27,1.19Z"/><path class="cls-1" d="M54.66,0a9.07,9.07,0,0,1-.83,2.7c-3,4.24-6.19,8.39-9.3,12.58-.35.46-.65,1-1.18,1.73,1.91,0,3.5-.05,5.08,0,1.9.08,2.75-1.26,3.7-2.53q4.54-6.09,9.13-12.16c.23-.32.43-.79.74-.89.58-.2,1.45-.46,1.81-.19a2.14,2.14,0,0,1,.39,1.79,5,5,0,0,1-1.06,1.57q-4.11,5.51-8.22,11a5.76,5.76,0,0,0-.54,1.15,7.23,7.23,0,0,0,1.36.31c1.12,0,2.25,0,3.37,0A3.07,3.07,0,0,0,62,15.74q3.84-5.25,7.76-10.43a4.12,4.12,0,0,1,1.65-1.37c1.1-.43,1.75.16,1.53,1.32a4.16,4.16,0,0,1-.76,1.57c-2.15,2.94-4.33,5.85-6.5,8.78-.27.37-.52.77-.79,1.15l.17.46c2.12-.15,4.25-.24,6.36-.5.47-.06.94-.69,1.28-1.14,1.65-2.15,3.25-4.33,4.87-6.5.24-.31.45-.77.76-.87.65-.22,1.55-.56,2-.29.76.45.59,1.38.08,2.09-1.09,1.52-2.23,3-3.3,4.54-.47.66-.84,1.39-1.25,2.09.84.16,1.68.37,2.54.46a10.91,10.91,0,0,0,2.06,0,3.73,3.73,0,0,0,3.09-1.72,7.83,7.83,0,0,1,1.66-2.06,2.35,2.35,0,0,1,2-.48c.8.4.64,1.35.23,2.09s-.79,1.22-1.42,2.17c1.56,0,2.85.08,4.12,0a2.71,2.71,0,0,1,2.56,1.13c.55.69.37,1.2-.44,1.44a5.69,5.69,0,0,1-1.59.21H14.88c-.84-.11-2.19,0-2.08-1A2.81,2.81,0,0,1,15,17.16c2.86.31,4.34-1.25,5.72-3.35a50.62,50.62,0,0,1,3.93-5.17,14.15,14.15,0,0,1,2.86-2.27,1.25,1.25,0,0,1,1.19,0c.21.23.15.83,0,1.22a4.14,4.14,0,0,1-.69,1.12l-4.92,6.64c-.32.43-.6.88-1.14,1.67,1.87,0,3.4,0,4.93,0,1.73,0,2.75-1,3.7-2.27,3-4.09,6.07-8.12,9.06-12.21a3.54,3.54,0,0,1,2.57-1.52c.89-.11,1.24.3.93,1.12A7.46,7.46,0,0,1,42.27,4c-2.77,3.76-5.57,7.51-8.36,11.26-.35.47-.66,1-1.23,1.78.82,0,1.32,0,1.81,0a14.56,14.56,0,0,1,2.64,0,3.45,3.45,0,0,0,3.76-1.64c3.35-4.62,6.79-9.17,10.22-13.74A20.72,20.72,0,0,1,52.59,0Z"/><path class="cls-1" d="M6.06,36.05a6.55,6.55,0,0,1-2.28-.39.81.81,0,0,1-.26-1.5,5.37,5.37,0,0,1,1.76-.95,5.37,5.37,0,0,1,1.61-.07H99.65a6.39,6.39,0,0,1,1.75.17,1.38,1.38,0,0,1,1.06,1.7,1.39,1.39,0,0,1-1.58,1.21C84.68,36.23,21.47,36.07,6.06,36.05Z"/><path class="cls-1" d="M52.74,25.09q21.42,0,42.84,0a5.7,5.7,0,0,1,2.33.62c.34.16.75.91.63,1.16a1.8,1.8,0,0,1-1.21.83,29.31,29.31,0,0,1-4,.27q-39,0-78,0c-2.11,0-4.22-.14-6.33-.23a2.1,2.1,0,0,1-1-.18c-.37-.24-.93-.65-.92-1a1.66,1.66,0,0,1,.79-1.25,6,6,0,0,1,2.16-.29Z"/><path class="cls-1" d="M105.39,61.69a23.05,23.05,0,0,1-1.65,3.12C99.22,71,94.65,77.05,90.09,83.16c-3.85,5.17-7.66,10.37-11.61,15.46a7.87,7.87,0,0,1-3,2c-.79.37-1.21-.15-.85-1a9.35,9.35,0,0,1,1.16-2q13.36-17.92,26.77-35.83a3.27,3.27,0,0,1,.78-.87c.34-.23.88-.51,1.15-.38S105,61.15,105.39,61.69Z"/></g></g></svg>